<svg width="120" height="121" viewBox="0 0 120 121" fill="none" xmlns="http://www.w3.org/2000/svg">
<g clip-path="url(#clip0_2_125)">
<path d="M33.3615 57.7492C31.8603 57.3922 30.3861 56.9309 28.9495 56.3688C28.9164 56.5393 28.8833 56.7097 28.8585 56.883C28.7984 57.3124 28.7497 57.7434 28.7124 58.1754C28.6848 58.4971 28.6572 58.8188 28.6489 59.1405C28.6319 59.6124 28.63 60.0847 28.6434 60.5567C28.6489 60.8427 28.6489 61.1341 28.6682 61.4284C28.7013 61.9591 28.7675 62.487 28.842 63.015C28.8751 63.2515 28.8916 63.4824 28.9302 63.7217C29.0626 64.4861 29.228 65.2478 29.4403 66.004C29.8079 67.2804 30.2906 68.5211 30.8825 69.7107C31.7401 71.443 32.8293 73.0104 34.0757 74.4403C34.9967 73.2386 36.0169 72.1085 37.1034 71.0361C35.9593 69.0047 35.0543 66.8483 34.4066 64.6099C33.7945 62.3706 33.4429 60.0686 33.3587 57.7492" fill="#B44E09"/>
<path d="M48.9716 69.4385C47.5928 70.0434 46.363 70.7199 45.249 71.4816C44.9346 71.6823 44.6892 71.8748 44.4135 72.07C46.7625 74.9528 49.7322 77.2714 53.1023 78.8537L50.3007 68.9105C49.8623 69.0838 49.3907 69.2432 48.9716 69.4385Z" fill="#B44E09"/>
<path d="M40.2442 75.6833C39.5245 76.4532 38.8765 77.2919 38.2423 78.1443C40.904 79.9915 43.9413 81.2309 47.138 81.774C44.5424 80.1047 42.2176 78.0526 40.2442 75.6833Z" fill="#B44E09"/>
<path d="M36.3147 43.3817C34.3601 45.0524 32.7139 47.0514 31.4505 49.2882C31.1198 49.8699 30.8198 50.4683 30.5516 51.0811C31.5498 51.4936 32.5783 51.8235 33.6207 52.1123C34.0619 49.0848 34.9884 46.1507 36.3147 43.3817Z" fill="#B44E09"/>
<path d="M45.7509 52.717L42.9465 42.749C40.8931 45.8493 39.5661 49.3709 39.064 53.0524C41.2983 53.2119 43.5438 53.0992 45.7509 52.717Z" fill="#B44E09"/>
<path d="M41.4327 67.4421C41.6864 67.2607 41.9236 67.0737 42.1883 66.9032C43.6115 65.9407 45.1218 65.1131 46.6995 64.4311C47.3531 64.1204 48.0866 63.8537 48.8063 63.5842L47.2455 58.0352C44.5091 58.5641 41.7166 58.7461 38.9344 58.5769C39.0668 60.1002 39.2929 61.6236 39.7148 63.125C40.1506 64.6136 40.7258 66.0609 41.4327 67.4421Z" fill="#B44E09"/>
<path d="M56.949 48.0563C54.5984 45.1728 51.6267 42.8542 48.2546 41.2726L51.059 51.2268C53.163 50.4018 55.1373 49.3377 56.949 48.0563Z" fill="#B44E09"/>
<path d="M65.0396 76.7392C66.9966 75.0708 68.6457 73.0737 69.912 70.8382C70.2402 70.2525 70.5325 69.6558 70.8055 69.0508C69.8039 68.6437 68.7813 68.2904 67.7419 67.9922C67.2913 71.0277 66.38 73.9771 65.0396 76.7392Z" fill="#B44E09"/>
<path d="M57.0952 67.1782C56.5768 67.2331 56.1025 67.3404 55.6144 67.4256L58.4133 77.3688C60.4643 74.2689 61.7894 70.7483 62.2903 67.0682C61.976 67.0462 61.6726 67.0132 61.3473 67.0022C59.9275 66.924 58.5036 66.983 57.0952 67.1782Z" fill="#B44E09"/>
<path d="M101.006 99.411C101.363 98.7748 101.452 98.023 101.254 97.3212L74.4483 2.00851C74.3506 1.66044 74.1851 1.33499 73.9611 1.05079C73.7371 0.76658 73.4592 0.529195 73.1432 0.352207C72.8271 0.175219 72.4792 0.0620993 72.1193 0.0193235C71.7593 -0.0234523 71.3945 0.0049537 71.0456 0.102915L2.01185 19.4118C1.30803 19.6092 0.71164 20.0773 0.35381 20.7131C-0.00402033 21.3489 -0.0939948 22.1004 0.103669 22.8023L26.9147 118.115C27.1127 118.817 27.5821 119.412 28.2196 119.768C28.8572 120.125 29.6108 120.215 30.3147 120.018L99.3457 100.712C99.6945 100.614 100.021 100.449 100.305 100.226C100.59 100.003 100.828 99.7259 101.006 99.411ZM77.9173 64.2607L77.8125 64.8656C77.2775 67.9073 76.2325 70.8374 74.7213 73.5329C72.9545 76.6869 70.5782 79.4603 67.7299 81.6928C64.8815 83.9253 61.6175 85.5726 58.1268 86.5393C55.6864 87.2158 53.1771 87.5622 50.6677 87.5622C44.1162 87.5454 37.7847 85.2029 32.8075 80.9545C32.7523 80.9133 32.6862 80.8968 32.6338 80.85C32.551 80.7813 32.4876 80.6961 32.4049 80.6246C31.6387 79.9415 30.9115 79.2163 30.2265 78.4522C29.9893 78.1828 29.7439 77.9188 29.5123 77.641C28.6489 76.6073 27.8627 75.5118 27.1602 74.3633C26.5846 73.4326 26.0653 72.4685 25.6049 71.4761C25.5222 71.2863 25.4505 71.0938 25.3678 70.9069C24.879 69.7961 24.4645 68.6543 24.1269 67.4889C23.7291 66.0429 23.4506 64.5668 23.2942 63.0755C23.1559 61.9194 23.0914 60.7558 23.1011 59.5915V59.509C23.1388 58.022 23.2974 56.5406 23.5754 55.0792C23.7686 54.023 24.0236 52.9791 24.3392 51.9527C24.3696 51.8509 24.3806 51.7409 24.4137 51.6364C24.4192 51.6254 24.4302 51.6172 24.433 51.6034C24.9955 49.8848 25.729 48.2047 26.639 46.5906C28.4061 43.4363 30.7828 40.6627 33.6317 38.4302C36.4806 36.1977 39.745 34.5506 43.2363 33.5842C45.6629 32.9031 48.1717 32.5571 50.6926 32.5558C57.3712 32.5558 63.6307 35.0058 68.4949 39.1277C68.5694 39.1745 68.6604 39.1855 68.7238 39.2432C68.9278 39.4219 69.0933 39.6309 69.2946 39.8152C69.8792 40.3486 70.4389 40.9123 70.9767 41.4953C71.302 41.8527 71.6247 42.2047 71.9307 42.5732C72.7766 43.597 73.547 44.6805 74.236 45.8152C74.7875 46.7171 75.2949 47.652 75.7444 48.6227C75.8298 48.8207 75.9098 49.0242 75.9953 49.2276C76.4723 50.3248 76.8997 51.455 77.2306 52.6346C77.6244 54.0673 77.901 55.5295 78.0579 57.0067C78.3398 59.4189 78.2934 61.8581 77.92 64.2579" fill="#B44E09"/>
<path d="M72.5041 57.004C72.4765 56.806 72.4655 56.608 72.4296 56.4128C72.3007 55.6398 72.1304 54.8743 71.9195 54.1195C71.5532 52.8518 71.0733 51.6195 70.4856 50.4375C69.6301 48.7193 68.5529 47.12 67.2814 45.6804C66.3572 46.8913 65.3502 48.0371 64.2675 49.1094C65.3787 51.1195 66.3163 53.2451 66.9505 55.5081C67.593 57.7822 67.9018 60.0892 68.0011 62.3908C69.4874 62.7483 70.9682 63.1882 72.4103 63.7492L72.471 63.3917C72.5565 62.8555 72.6144 62.3193 72.6585 61.7776C72.675 61.5411 72.6971 61.3046 72.7081 61.0682C72.733 60.5182 72.7302 59.9683 72.7109 59.421C72.7054 59.1928 72.7081 58.9646 72.6916 58.7336C72.6521 58.1539 72.5895 57.5788 72.5041 57.004Z" fill="#B44E09"/>
<path d="M59.9354 52.7034C57.6482 54.2914 55.1688 55.5848 52.5564 56.5531L54.1199 62.1076C54.892 61.9564 55.6696 61.7996 56.4279 61.7171C58.1319 61.4877 59.8536 61.4178 61.5706 61.5081C61.8491 61.5136 62.1414 61.5522 62.4282 61.5687C62.3115 60.0223 62.0493 58.4904 61.6451 56.993C61.2105 55.5131 60.6381 54.077 59.9354 52.7034Z" fill="#B44E09"/>
<path d="M61.1074 44.432C61.8326 43.6566 62.5247 42.8591 63.1534 42.0039C60.4825 40.1428 57.4314 38.8947 54.2192 38.3495C56.8112 40.0324 59.1468 42.0617 61.1074 44.432Z" fill="#B44E09"/>
<path d="M117.597 17.2066L83.1975 12.7574L106.564 95.8365C107.16 97.9648 106.895 100.192 105.812 102.106C105.282 103.051 104.57 103.882 103.717 104.552C102.864 105.221 101.886 105.715 100.84 106.005L65.602 115.86L104.152 120.835C104.876 120.927 105.608 120.73 106.187 120.285C106.765 119.84 107.143 119.184 107.237 118.462L119.977 20.2891C120.071 19.566 119.873 18.8354 119.426 18.2579C118.98 17.6803 118.322 17.3004 117.597 17.2066Z" fill="#B44E09"/>
</g>
<defs>
<clipPath id="clip0_2_125">
<rect width="120" height="120.857" fill="white"/>
</clipPath>
</defs>
</svg>
