<svg width="56" height="56" viewBox="0 0 56 56" fill="none" xmlns="http://www.w3.org/2000/svg">
<rect x="0.432495" y="3.37256" width="43.1929" height="42.362" rx="2" fill="white"/>
<rect x="7.77124" y="0.624878" width="3.39127" height="6.76637" rx="1.5" fill="white" stroke="#A1633D"/>
<rect x="32.967" y="0.624878" width="3.39127" height="6.76637" rx="1.5" fill="white" stroke="#A1633D"/>
<circle cx="3.66382" cy="42.9926" r="1" fill="#A1633D"/>
<circle cx="7.11926" cy="42.9926" r="1" fill="#A1633D"/>
<circle cx="10.5748" cy="42.9926" r="1" fill="#A1633D"/>
<circle cx="14.03" cy="42.9926" r="1" fill="#A1633D"/>
<circle cx="17.4856" cy="42.9926" r="1" fill="#A1633D"/>
<circle cx="20.941" cy="42.9926" r="1" fill="#A1633D"/>
<circle cx="24.3966" cy="42.9926" r="1" fill="#A1633D"/>
<circle cx="27.8518" cy="42.9926" r="1" fill="#A1633D"/>
<path d="M54.8649 42.5505C54.8649 49.1547 49.4007 54.5415 42.6191 54.5415C35.8375 54.5415 30.3733 49.1547 30.3733 42.5505C30.3733 35.9462 35.8375 30.5594 42.6191 30.5594C49.4007 30.5594 54.8649 35.9462 54.8649 42.5505Z" fill="white" stroke="#A1633D" stroke-width="2"/>
<path d="M22.6932 16.9022C22.6931 16.9025 22.693 16.9028 22.6929 16.9031L22.6932 16.9022L22.3837 16.7997L22.6932 16.9022ZM21.3642 16.9022L21.3645 16.9031C21.3644 16.9028 21.3643 16.9025 21.3642 16.9022L21.6737 16.7997L21.3642 16.9022ZM23.2628 16.2733C22.8691 15.085 21.1883 15.085 20.7947 16.2733L18.963 21.8021L13.0393 21.8021C11.7739 21.8021 11.2543 23.4264 12.2849 24.1608L17.0554 27.5601L15.2327 33.0621C14.8373 34.2554 16.1974 35.2591 17.2211 34.5297L22.0287 31.1039L26.8363 34.5297C27.8601 35.2591 29.2201 34.2554 28.8248 33.0621L27.002 27.5601L31.7725 24.1608C32.8031 23.4264 32.2836 21.8021 31.0181 21.8021L25.0944 21.8021L23.2628 16.2733Z" stroke="#A1633D" stroke-width="2"/>
<path d="M35.9945 42.9461L39.5579 46.2292L48.3765 38.0392" stroke="#A1633D" stroke-width="2" stroke-linecap="round" stroke-linejoin="round"/>
<line x1="0.431274" y1="9.71545" x2="43.6263" y2="9.71545" stroke="#A36741" stroke-width="2"/>
</svg>
