<svg width="35" height="36" viewBox="0 0 35 36" fill="none" xmlns="http://www.w3.org/2000/svg">
<rect x="0.000671387" y="2.92383" width="27.4864" height="26.9576" rx="2" fill="#A3663C"/>
<rect x="4.60272" y="1.10718" width="2.29445" height="4.44223" rx="1.14722" fill="#A3663C" stroke="#F5F5F5" stroke-width="0.5"/>
<rect x="20.6364" y="1.10718" width="2.29445" height="4.44223" rx="1.14722" fill="#A3663C" stroke="#F5F5F5" stroke-width="0.5"/>
<ellipse cx="1.83313" cy="27.9046" rx="0.412296" ry="0.404365" fill="#F5F5F5"/>
<ellipse cx="4.03205" cy="27.9046" rx="0.412296" ry="0.404365" fill="#F5F5F5"/>
<ellipse cx="6.23096" cy="27.9046" rx="0.412296" ry="0.404365" fill="#F5F5F5"/>
<ellipse cx="8.42987" cy="27.9046" rx="0.412296" ry="0.404365" fill="#F5F5F5"/>
<ellipse cx="10.6288" cy="27.9046" rx="0.412296" ry="0.404365" fill="#F5F5F5"/>
<ellipse cx="12.8277" cy="27.9046" rx="0.412296" ry="0.404365" fill="#F5F5F5"/>
<ellipse cx="15.0266" cy="27.9046" rx="0.412296" ry="0.404365" fill="#F5F5F5"/>
<ellipse cx="17.2255" cy="27.9046" rx="0.412296" ry="0.404365" fill="#F5F5F5"/>
<path d="M34.5 27.5903C34.5 31.8707 30.9592 35.3573 26.5709 35.3573C22.1825 35.3573 18.6417 31.8707 18.6417 27.5903C18.6417 23.3098 22.1825 19.8232 26.5709 19.8232C30.9592 19.8232 34.5 23.3098 34.5 27.5903Z" fill="#A3663C" stroke="#F5F5F5"/>
<path d="M14.5033 11.489C14.261 10.7578 13.2267 10.7578 12.9844 11.489L11.8914 14.7882H8.36441C7.58567 14.7882 7.26596 15.7878 7.90016 16.2397L10.7401 18.2634L9.65351 21.5434C9.41023 22.2777 10.2472 22.8954 10.8772 22.4465L13.7439 20.4038L16.6106 22.4465C17.2405 22.8954 18.0775 22.2777 17.8342 21.5434L16.7476 18.2634L19.5876 16.2397C20.2218 15.7878 19.902 14.7882 19.1233 14.7882H15.5963L14.5033 11.489ZM11.846 14.9253C11.8461 14.9252 11.8461 14.9251 11.8461 14.925L11.846 14.9253Z" stroke="#F5F5F5"/>
<path d="M22.6311 28.107L24.8987 30.1962L30.5105 24.9844" stroke="#F5F5F5" stroke-linecap="round" stroke-linejoin="round"/>
<line y1="7.09668" x2="27.4877" y2="7.09668" stroke="white"/>
</svg>
