<svg width="36" height="36" viewBox="0 0 36 36" fill="none" xmlns="http://www.w3.org/2000/svg">
<path fill-rule="evenodd" clip-rule="evenodd" d="M18.5914 35.955C28.2561 35.8867 36.0356 27.9965 35.9673 18.3318C35.8991 8.66706 28.0088 0.887589 18.3442 0.95586C8.67942 1.02413 0.899948 8.91429 0.968219 18.579C1.03649 28.2437 8.92665 36.0233 18.5914 35.955ZM19.731 11.4465C19.7259 10.7216 19.1341 10.1381 18.4093 10.1433C17.6844 10.1484 17.101 10.7402 17.1061 11.465L17.1555 18.4648C17.158 18.8129 17.2986 19.1458 17.5465 19.3901L21.9523 23.7341C22.4685 24.243 23.2994 24.2372 23.8083 23.721C24.3173 23.2048 24.3114 22.3739 23.7952 21.865L19.7766 17.9026L19.731 11.4465Z" fill="#F5F5F5"/>
</svg>
