<svg width="35" height="36" viewBox="0 0 35 36" fill="none" xmlns="http://www.w3.org/2000/svg">
<path d="M35 18.3572C35 28.0221 27.1649 35.8572 17.5 35.8572C7.83501 35.8572 0 28.0221 0 18.3572C0 8.69219 7.83501 0.857178 17.5 0.857178C27.1649 0.857178 35 8.69219 35 18.3572Z" fill="#A3663C"/>
<path d="M18.3127 17.8136V18.0207L18.4592 18.1671L22.4497 22.1578L22.4497 22.1578C22.767 22.4751 22.767 22.9895 22.4497 23.3068C22.1324 23.6241 21.6181 23.6241 21.3008 23.3068L16.9258 18.9318L16.9256 18.9316C16.7734 18.7795 16.6877 18.5728 16.6877 18.3573V11.3573C16.6877 10.9086 17.0515 10.5448 17.5002 10.5448C17.949 10.5448 18.3127 10.9086 18.3127 11.3573V17.8136Z" fill="#F5F5F5" stroke="#F5F5F5"/>
</svg>
