<svg width="50" height="40" viewBox="0 0 50 40" fill="none" xmlns="http://www.w3.org/2000/svg">
<path d="M49.9998 11.8681L44.0474 15.1187L38.095 20.7332V40H46.4283C48.4009 40 49.9998 38.4126 49.9998 36.454V11.8681Z" fill="#4CAF50"/>
<path d="M0 11L4.4754 13.0836L11.5 20.1387V40H3.8C1.9773 40 0 38.019 0 36V11Z" fill="#1E88E5"/>
<path d="M38.0951 4.68866L24.9999 16.7766L11.9046 4.68866L10.7141 13.1868L11.9046 23.0037L24.9999 35.0916L38.0951 23.0037L39.2856 13.1868L38.0951 4.68866Z" fill="#E53935"/>
<path d="M0 6.29744V12.0147L11.9048 23.0037V4.68864L8.18573 1.25861C7.30002 0.441026 6.22382 0 5.11668 0C2.29048 0 0 2.81905 0 6.29744Z" fill="#C62828"/>
<path d="M49.9998 6.29744V12.0147L38.095 23.0037V4.68864L41.814 1.25861C42.6997 0.441026 43.7759 0 44.8831 0C47.7093 0 49.9998 2.81905 49.9998 6.29744Z" fill="#FBC02D"/>
</svg>
