<svg width="41" height="41" viewBox="0 0 41 41" fill="none" xmlns="http://www.w3.org/2000/svg">
<path d="M20.4167 0.479621C28.9943 0.419029 36.0212 7.34734 36.0847 16.3338C37.385 16.7798 38.515 17.6181 39.3189 18.7332C40.1228 19.8484 40.561 21.1854 40.5732 22.56L40.6046 27.0043C40.6117 28.3792 40.1923 29.7225 39.4043 30.8492C38.6163 31.9759 37.4984 32.8306 36.2045 33.2956L36.2231 35.9244C36.2314 37.1031 35.7711 38.2369 34.9435 39.0762C34.116 39.9156 32.9888 40.3918 31.8101 40.4001L18.4771 40.4943C17.5931 40.5006 16.7428 40.1554 16.1133 39.5347C15.4837 38.914 15.1266 38.0686 15.1203 37.1846C15.1141 36.3006 15.4593 35.4503 16.08 34.8208C16.7007 34.1912 17.546 33.8341 18.43 33.8278L22.8744 33.7964C24.3232 33.7862 25.552 34.7086 26.0189 35.9965L31.7787 35.9558L31.763 33.7336C31.1737 33.7378 30.6068 33.5077 30.1871 33.0939C29.7674 32.6801 29.5293 32.1165 29.5252 31.5272L29.431 18.1942C29.4268 17.6048 29.6569 17.0379 30.0707 16.6183C30.4845 16.1986 31.0481 15.9605 31.6375 15.9563C31.6166 13.0095 30.4261 10.1917 28.3277 8.12274C26.2293 6.05378 23.3949 4.90314 20.4481 4.92395C17.5014 4.94477 14.6835 6.13534 12.6146 8.23374C10.5456 10.3321 9.39497 13.1665 9.41578 16.1133C10.0051 16.1091 10.572 16.3392 10.9917 16.753C11.4114 17.1668 11.6495 17.7304 11.6536 18.3197L11.7478 31.6527C11.752 32.2421 11.5219 32.809 11.1081 33.2287C10.6943 33.6483 10.1307 33.8864 9.54136 33.8906L7.3192 33.9063C5.55113 33.9188 3.85052 33.2284 2.59148 31.987C1.33243 30.7457 0.618092 29.055 0.605603 27.2869L0.574208 22.8426C0.553739 19.9449 2.39644 17.4896 4.97145 16.1447C4.91086 7.5671 11.8392 0.540212 20.4167 0.479621Z" fill="#F5F5F5"/>
</svg>
