<svg width="40" height="41" viewBox="0 0 40 41" fill="none" xmlns="http://www.w3.org/2000/svg">
<path d="M20 0.857178C28.5778 0.857178 35.5556 7.83495 35.5556 16.8216C36.8527 17.2768 37.9767 18.1231 38.7728 19.2439C39.5688 20.3646 39.9975 21.7047 40 23.0794V27.5238C39.9973 28.8988 39.5685 30.239 38.7726 31.3601C37.9766 32.4812 36.8527 33.328 35.5556 33.7838V36.4127C35.5556 37.5915 35.0873 38.7219 34.2538 39.5554C33.4203 40.3889 32.2899 40.8572 31.1111 40.8572H17.7778C16.8937 40.8572 16.0459 40.506 15.4208 39.8809C14.7956 39.2557 14.4444 38.4079 14.4444 37.5238C14.4444 36.6398 14.7956 35.7919 15.4208 35.1668C16.0459 34.5417 16.8937 34.1905 17.7778 34.1905H22.2222C23.6711 34.1905 24.8933 35.1216 25.3511 36.4127H31.1111V34.1905C30.5217 34.1905 29.9565 33.9564 29.5398 33.5396C29.123 33.1229 28.8889 32.5577 28.8889 31.9683V18.635C28.8889 18.0456 29.123 17.4804 29.5398 17.0636C29.9565 16.6469 30.5217 16.4127 31.1111 16.4127C31.1111 13.4659 29.9405 10.6397 27.8567 8.55599C25.773 6.47225 22.9468 5.30162 20 5.30162C17.0532 5.30162 14.227 6.47225 12.1433 8.55599C10.0595 10.6397 8.88889 13.4659 8.88889 16.4127C9.47826 16.4127 10.0435 16.6469 10.4602 17.0636C10.877 17.4804 11.1111 18.0456 11.1111 18.635V31.9683C11.1111 32.5577 10.877 33.1229 10.4602 33.5396C10.0435 33.9564 9.47826 34.1905 8.88889 34.1905H6.66667C4.89856 34.1905 3.20287 33.4881 1.95262 32.2379C0.70238 30.9876 0 29.292 0 27.5238V23.0794C0 20.1816 1.86 17.7394 4.44445 16.4127C4.44445 7.83495 11.4222 0.857178 20 0.857178Z" fill="#A3663C"/>
</svg>
