<svg width="40" height="41" viewBox="0 0 40 41" fill="none" xmlns="http://www.w3.org/2000/svg">
<path d="M20 0.857178C31.0461 0.857178 40 9.81109 40 20.8572C40 31.9033 31.0461 40.8572 20 40.8572C8.95391 40.8572 0 31.9033 0 20.8572C0 9.81109 8.95391 0.857178 20 0.857178ZM26.8991 29.0094C27.267 27.8807 28.9904 16.632 29.2035 14.4154C29.2678 13.7441 29.0557 13.298 28.64 13.0989C28.1374 12.8572 27.393 12.978 26.5296 13.2894C25.3452 13.7163 10.2043 20.145 9.32956 20.5172C8.5 20.8694 7.71565 21.2537 7.71565 21.8102C7.71565 22.2015 7.94783 22.4215 8.58783 22.6502C9.25391 22.8876 10.9313 23.3963 11.9217 23.6694C12.8757 23.9328 13.9617 23.7041 14.5704 23.3259C15.2157 22.925 22.6617 17.9424 23.1965 17.5059C23.7304 17.0694 24.1565 17.6285 23.72 18.0659C23.2835 18.5024 18.1722 23.4633 17.4983 24.1502C16.68 24.9841 17.2609 25.8485 17.8096 26.1946C18.4365 26.5894 22.9452 29.6137 23.6243 30.0989C24.3035 30.5841 24.9922 30.8041 25.6226 30.8041C26.253 30.8041 26.5852 29.9737 26.8991 29.0094Z" fill="#A3663C"/>
</svg>
