<svg width="41" height="41" viewBox="0 0 41 41" fill="none" xmlns="http://www.w3.org/2000/svg">
<path d="M20.4397 0.0327974C31.4855 -0.0452293 40.5024 8.84521 40.5805 19.891C40.6585 30.9368 31.768 39.9538 20.7222 40.0318C9.67642 40.1098 0.659487 31.2194 0.58146 20.1736C0.503434 9.12776 9.39387 0.110824 20.4397 0.0327974ZM27.5375 28.1355C27.8973 27.0043 29.5413 15.7437 29.7387 13.5257C29.7983 12.854 29.583 12.4094 29.1659 12.2132C28.6616 11.975 27.9182 12.1011 27.0569 12.4185C25.8756 12.8538 10.7805 19.3893 9.90839 19.7677C9.08133 20.1257 8.29972 20.5156 8.30365 21.0721C8.30642 21.4634 8.54014 21.6817 9.18174 21.9059C9.84948 22.1386 11.5304 22.6354 12.5228 22.9015C13.4785 23.1582 14.563 22.9218 15.169 22.5393C15.8113 22.1339 23.222 17.0988 23.7537 16.6585C24.2845 16.2182 24.7146 16.7743 24.2812 17.2148C23.8477 17.6544 18.7716 22.6512 18.1025 23.3429C17.2902 24.1826 17.8772 25.0428 18.4283 25.385C19.058 25.7754 23.588 28.7678 24.2705 29.2482C24.953 29.7286 25.6433 29.9437 26.2737 29.9393C26.9041 29.9348 27.2304 29.1021 27.5375 28.1355Z" fill="#F5F5F5"/>
</svg>
