<svg width="40" height="40" viewBox="0 0 40 40" fill="none" xmlns="http://www.w3.org/2000/svg">
<path id="WhatsApp" d="M20.0001 0C8.97227 0 0.000129065 8.97215 0.000129065 19.9999C0.000129065 23.4434 0.889691 26.8295 2.57664 29.8173L0.0323028 38.8955C-0.0511752 39.1938 0.0296942 39.5138 0.245346 39.7355C0.411432 39.9068 0.637518 39.9999 0.869691 39.9999C0.939256 39.9999 1.00969 39.9912 1.07839 39.9747L10.5531 37.6277C13.4462 39.1807 16.7044 39.9999 20.0001 39.9999C31.0279 39.9999 40 31.0277 40 19.9999C40 8.97215 31.0279 0 20.0001 0ZM30.0609 27.0573C29.6331 28.2416 27.5809 29.3225 26.5948 29.4677C25.7096 29.5973 24.5896 29.6529 23.3601 29.2669C22.6148 29.0321 21.6583 28.7208 20.4331 28.1982C15.2827 26.0017 11.9192 20.8808 11.6618 20.5425C11.4053 20.2043 9.56532 17.7939 9.56532 15.2991C9.56532 12.8043 10.8914 11.5774 11.3627 11.0695C11.834 10.5617 12.3897 10.4347 12.7323 10.4347C13.0749 10.4347 13.4166 10.4391 13.7166 10.453C14.0323 10.4687 14.4557 10.3339 14.8723 11.3234C15.3001 12.3391 16.327 14.8339 16.454 15.0886C16.5827 15.3426 16.6679 15.6391 16.4975 15.9773C16.327 16.3156 16.2418 16.5269 15.9844 16.8234C15.727 17.1199 15.4453 17.4843 15.214 17.7121C14.9566 17.9652 14.6896 18.2391 14.9888 18.7469C15.2879 19.2547 16.3183 20.9147 17.8453 22.2591C19.8062 23.986 21.4609 24.5217 21.974 24.7756C22.487 25.0295 22.787 24.9869 23.0861 24.6486C23.3853 24.3095 24.3696 23.1677 24.7114 22.6608C25.0531 22.1538 25.3957 22.2373 25.867 22.4069C26.3383 22.5756 28.8626 23.8017 29.3757 24.0556C29.8887 24.3095 30.2313 24.4364 30.36 24.6477C30.4887 24.8582 30.4887 25.8738 30.0609 27.0573Z" fill="#25D366"/>
</svg>
