<svg width="40" height="41" viewBox="0 0 40 41" fill="none" xmlns="http://www.w3.org/2000/svg">
<path d="M20.0001 0.857178C8.9723 0.857178 0.000129064 9.82934 0.000129064 20.8572C0.000129064 24.3006 0.889693 27.6867 2.57665 30.6745L0.0323029 39.7528C-0.0511753 40.0511 0.0296943 40.3711 0.245346 40.5928C0.411433 40.7641 0.63752 40.8571 0.869694 40.8571C0.939259 40.8571 1.00969 40.8485 1.07839 40.8319L10.5532 38.485C13.4462 40.038 16.7045 40.8571 20.0001 40.8571C31.0279 40.8571 40.0001 31.885 40.0001 20.8572C40.0001 9.82934 31.0279 0.857178 20.0001 0.857178ZM30.061 27.9145C29.6331 29.0989 27.581 30.1798 26.5949 30.325C25.7097 30.4545 24.5897 30.5102 23.3601 30.1241C22.6149 29.8893 21.6584 29.578 20.4332 29.0554C15.2827 26.8589 11.9193 21.738 11.6619 21.3998C11.4053 21.0615 9.56534 18.6511 9.56534 16.1563C9.56534 13.6615 10.8914 12.4346 11.3627 11.9267C11.834 11.4189 12.3897 11.292 12.7323 11.292C13.0749 11.292 13.4166 11.2963 13.7166 11.3102C14.0323 11.3259 14.4558 11.1911 14.8723 12.1806C15.3001 13.1963 16.3271 15.6911 16.454 15.9459C16.5827 16.1998 16.6679 16.4963 16.4975 16.8346C16.3271 17.1728 16.2419 17.3841 15.9845 17.6806C15.7271 17.9772 15.4453 18.3415 15.214 18.5693C14.9566 18.8224 14.6897 19.0963 14.9888 19.6041C15.2879 20.1119 16.3184 21.7719 17.8453 23.1163C19.8062 24.8432 21.461 25.3789 21.974 25.6328C22.4871 25.8867 22.7871 25.8441 23.0862 25.5059C23.3853 25.1667 24.3697 24.025 24.7114 23.518C25.0532 23.0111 25.3958 23.0946 25.8671 23.2641C26.3384 23.4328 28.8627 24.6589 29.3758 24.9128C29.8888 25.1667 30.2314 25.2937 30.3601 25.505C30.4888 25.7154 30.4888 26.7311 30.061 27.9145Z" fill="#A3663C"/>
</svg>
