<svg width="41" height="41" viewBox="0 0 41 41" fill="none" xmlns="http://www.w3.org/2000/svg">
<path d="M19.9454 0.632772C8.91787 0.71067 0.00930692 9.74599 0.0872046 20.7735C0.111528 24.2169 1.02499 27.5966 2.73301 30.5725L0.252852 39.6685C0.171482 39.9673 0.25461 40.2867 0.471823 40.5069C0.639116 40.6771 0.865854 40.7685 1.09802 40.7669C1.16759 40.7664 1.23796 40.7572 1.30653 40.7402L10.7645 38.3264C13.6684 39.8589 16.9324 40.655 20.228 40.6317C31.2555 40.5538 40.1641 31.5185 40.0862 20.491C40.0083 9.46344 30.973 0.554875 19.9454 0.632772ZM30.1972 27.6184C29.7777 28.8057 27.7332 29.9011 26.7482 30.0533C25.8639 30.1891 24.7443 30.2526 23.5121 29.8752C22.7652 29.6457 21.8065 29.3412 20.5776 28.8272C15.4118 26.6672 12.0123 21.5702 11.7525 21.2338C11.4936 20.8973 9.63659 18.4999 9.61897 16.0052C9.60135 13.5105 10.9187 12.2742 11.3864 11.7631C11.8541 11.2519 12.4089 11.121 12.7515 11.1186C13.0941 11.1162 13.4358 11.1181 13.7359 11.1299C14.0517 11.1434 14.4742 11.0056 14.8977 11.9922C15.3327 13.0048 16.3772 15.4922 16.506 15.7461C16.6365 15.9991 16.7238 16.295 16.5558 16.6345C16.3877 16.9739 16.304 17.1859 16.0487 17.4842C15.7934 17.7825 15.5143 18.1488 15.2846 18.3783C15.029 18.6332 14.764 18.9089 15.0667 19.4146C15.3694 19.9203 16.4115 21.573 17.9479 22.9066C19.9209 24.6196 21.5795 25.1436 22.0943 25.3938C22.6091 25.6441 22.9088 25.5994 23.2055 25.259C23.5023 24.9178 24.4785 23.7691 24.8167 23.2598C25.1548 22.7504 25.498 22.8315 25.9705 22.9977C26.443 23.1631 28.9759 24.3713 29.4907 24.6216C30.0056 24.8719 30.3491 24.9964 30.4793 25.2068C30.6094 25.4163 30.6166 26.4319 30.1972 27.6184Z" fill="#F5F5F5"/>
</svg>
