<svg width="50" height="50" viewBox="0 0 50 50" fill="none" xmlns="http://www.w3.org/2000/svg">
<path d="M4.66515 37.6764C4.77277 37.2924 4.72305 36.8814 4.52699 36.5341C2.54563 33.0249 1.50016 29.0464 1.50016 24.9999C1.50016 12.0436 12.0438 1.5 25.0001 1.5C37.9564 1.5 48.5 12.0436 48.5 24.9999C48.5 37.9562 37.9564 48.4998 25.0001 48.4998C21.1276 48.4998 17.2986 47.537 13.9009 45.713C13.5732 45.5371 13.1918 45.4892 12.8308 45.5786L1.676 48.3417L4.66515 37.6764Z" fill="#25D366" stroke="white" stroke-width="3" stroke-linejoin="round"/>
<path d="M37.1493 33.6082L37.1492 33.6083C36.9407 34.1855 36.2877 34.8177 35.4475 35.3493C34.6202 35.8727 33.7376 36.2195 33.214 36.2966C32.1478 36.4526 30.8314 36.5146 29.3937 36.0633C28.4685 35.7718 27.2906 35.3883 25.7809 34.7444L25.7809 34.7444C19.9219 32.2457 15.9435 26.6343 15.1432 25.5054C15.0842 25.4223 15.0425 25.3634 15.0185 25.332L15.0132 25.3249C14.8484 25.1077 14.2224 24.2824 13.6347 23.1398C13.0361 21.9758 12.5 20.5257 12.5 19.0804C12.5 16.3612 13.8346 14.955 14.4879 14.2666C14.5332 14.2189 14.5752 14.1746 14.6132 14.1336C15.0913 13.6185 15.6434 13.5 15.9587 13.5C16.3835 13.5 16.8016 13.5054 17.1652 13.5223C17.2791 13.5279 17.3574 13.5271 17.417 13.5266C17.5242 13.5255 17.5704 13.5251 17.653 13.5636C17.7391 13.6037 17.9351 13.7401 18.1728 14.3048L18.1729 14.305C18.3448 14.713 18.5997 15.326 18.8708 15.9776C19.4267 17.3143 20.0503 18.8136 20.1633 19.0404L20.1633 19.0404L20.1649 19.0434C20.2938 19.2978 20.3281 19.486 20.2187 19.7033C20.1845 19.771 20.1538 19.833 20.1253 19.8906C19.9665 20.2111 19.8764 20.3931 19.6463 20.6581C19.5196 20.8041 19.3987 20.9497 19.2831 21.0888C19.0754 21.3388 18.8852 21.5679 18.7103 21.7402C18.7057 21.7447 18.7009 21.7494 18.6961 21.7542C18.5475 21.9 18.3094 22.1337 18.1912 22.448C18.0507 22.8217 18.1012 23.2241 18.3485 23.644C18.7312 24.2936 20.0512 26.4226 22.0195 28.1556C24.1383 30.0217 26.0059 30.8196 26.8963 31.2C27.0631 31.2713 27.1956 31.3279 27.289 31.3742C27.6429 31.5493 28.0026 31.6643 28.3658 31.6207C28.7494 31.5746 29.04 31.365 29.2756 31.0986L29.276 31.0981C29.6432 30.6818 30.898 29.2283 31.3471 28.562C31.5059 28.3265 31.6039 28.3089 31.6506 28.3035C31.7517 28.292 31.899 28.3245 32.2078 28.4356L32.2086 28.4359C32.4728 28.5305 33.3786 28.9511 34.3354 29.407C35.2762 29.8554 36.2231 30.3168 36.5412 30.4742C36.6853 30.5455 36.8091 30.6045 36.9188 30.6568C37.0753 30.7314 37.2031 30.7923 37.3201 30.8557C37.4756 30.94 37.5349 30.9908 37.5562 31.0137C37.5597 31.0296 37.5717 31.0795 37.5796 31.1795C37.5912 31.3248 37.5908 31.5258 37.5692 31.7726C37.5262 32.2652 37.4017 32.9099 37.1493 33.6082Z" fill="white" stroke="white" stroke-linejoin="round"/>
</svg>
