<svg width="80" height="58" viewBox="0 0 80 58" fill="none" xmlns="http://www.w3.org/2000/svg">
<path d="M63.385 0.724136H16.615C7.43877 0.724136 0 8.15524 0 17.322V40.678C0 49.8447 7.43877 57.2759 16.615 57.2759H63.385C72.5612 57.2759 80 49.8447 80 40.678V17.322C80 8.15524 72.5612 0.724136 63.385 0.724136ZM52.1484 30.1363L30.2726 40.5591C29.6897 40.8368 29.0163 40.4122 29.0163 39.7672V18.2703C29.0163 17.616 29.7074 17.192 30.2915 17.4877L52.1673 28.5619C52.8178 28.8911 52.8065 29.8229 52.1484 30.1363Z" fill="#C12A31"/>
<path d="M52.1485 30.1364L30.2726 40.5592C29.6897 40.8369 29.0164 40.4123 29.0164 39.7673V18.2703C29.0164 17.6161 29.7074 17.1921 30.2915 17.4878L52.1674 28.562C52.8178 28.8912 52.8065 29.823 52.1485 30.1364Z" fill="white"/>
</svg>
