<svg width="520" height="121" viewBox="0 0 520 121" fill="none" xmlns="http://www.w3.org/2000/svg">
<g clip-path="url(#clip0_2_142)">
<g clip-path="url(#clip1_2_142)">
<path d="M33.3615 57.7492C31.8603 57.3922 30.3861 56.9309 28.9495 56.3688C28.9164 56.5393 28.8833 56.7097 28.8585 56.883C28.7984 57.3124 28.7497 57.7434 28.7124 58.1754C28.6848 58.4971 28.6572 58.8188 28.6489 59.1405C28.6319 59.6124 28.63 60.0847 28.6434 60.5567C28.6489 60.8427 28.6489 61.1341 28.6682 61.4284C28.7013 61.9591 28.7675 62.487 28.842 63.015C28.8751 63.2515 28.8916 63.4824 28.9302 63.7217C29.0626 64.4861 29.228 65.2478 29.4403 66.004C29.8079 67.2804 30.2906 68.5211 30.8825 69.7107C31.7401 71.443 32.8293 73.0104 34.0757 74.4403C34.9967 73.2386 36.0169 72.1085 37.1034 71.0361C35.9593 69.0047 35.0543 66.8483 34.4066 64.6099C33.7945 62.3706 33.4429 60.0686 33.3587 57.7492" fill="#B44E09"/>
<path d="M48.9716 69.4385C47.5928 70.0434 46.363 70.7199 45.249 71.4816C44.9346 71.6823 44.6892 71.8748 44.4135 72.07C46.7625 74.9528 49.7322 77.2714 53.1023 78.8537L50.3007 68.9105C49.8623 69.0838 49.3907 69.2432 48.9716 69.4385Z" fill="#B44E09"/>
<path d="M40.2442 75.6833C39.5245 76.4532 38.8765 77.2919 38.2423 78.1443C40.904 79.9915 43.9413 81.2309 47.138 81.774C44.5424 80.1047 42.2176 78.0526 40.2442 75.6833Z" fill="#B44E09"/>
<path d="M36.3147 43.3817C34.3601 45.0524 32.7139 47.0514 31.4505 49.2882C31.1198 49.8699 30.8198 50.4683 30.5516 51.0811C31.5498 51.4936 32.5783 51.8235 33.6207 52.1123C34.0619 49.0848 34.9884 46.1507 36.3147 43.3817Z" fill="#B44E09"/>
<path d="M45.7509 52.717L42.9465 42.749C40.8931 45.8493 39.5661 49.3709 39.064 53.0524C41.2983 53.2119 43.5438 53.0992 45.7509 52.717Z" fill="#B44E09"/>
<path d="M41.4327 67.4421C41.6864 67.2607 41.9236 67.0737 42.1883 66.9032C43.6115 65.9407 45.1218 65.1131 46.6995 64.4311C47.3531 64.1204 48.0866 63.8537 48.8063 63.5842L47.2455 58.0352C44.5091 58.5641 41.7166 58.7461 38.9344 58.5769C39.0668 60.1002 39.2929 61.6236 39.7148 63.125C40.1506 64.6136 40.7258 66.0609 41.4327 67.4421Z" fill="#B44E09"/>
<path d="M56.949 48.0563C54.5984 45.1728 51.6267 42.8542 48.2546 41.2726L51.059 51.2268C53.163 50.4018 55.1373 49.3377 56.949 48.0563Z" fill="#B44E09"/>
<path d="M65.0396 76.7392C66.9966 75.0708 68.6457 73.0737 69.912 70.8382C70.2402 70.2525 70.5325 69.6558 70.8055 69.0508C69.8039 68.6437 68.7813 68.2904 67.7419 67.9922C67.2913 71.0277 66.38 73.9771 65.0396 76.7392Z" fill="#B44E09"/>
<path d="M57.0952 67.1782C56.5768 67.2331 56.1025 67.3404 55.6144 67.4256L58.4133 77.3688C60.4643 74.2689 61.7894 70.7483 62.2903 67.0682C61.976 67.0462 61.6726 67.0132 61.3473 67.0022C59.9275 66.924 58.5036 66.983 57.0952 67.1782Z" fill="#B44E09"/>
<path d="M101.006 99.411C101.363 98.7748 101.452 98.023 101.254 97.3212L74.4483 2.00851C74.3506 1.66044 74.1851 1.33499 73.9611 1.05079C73.7371 0.76658 73.4592 0.529195 73.1432 0.352207C72.8271 0.175219 72.4792 0.0620993 72.1193 0.0193235C71.7593 -0.0234523 71.3945 0.0049537 71.0456 0.102915L2.01185 19.4118C1.30803 19.6092 0.71164 20.0773 0.35381 20.7131C-0.00402033 21.3489 -0.0939948 22.1004 0.103669 22.8023L26.9147 118.115C27.1127 118.817 27.5821 119.412 28.2196 119.768C28.8572 120.125 29.6108 120.215 30.3147 120.018L99.3457 100.712C99.6945 100.614 100.021 100.449 100.305 100.226C100.59 100.003 100.828 99.7259 101.006 99.411ZM77.9173 64.2607L77.8125 64.8656C77.2775 67.9073 76.2325 70.8374 74.7213 73.5329C72.9545 76.6869 70.5782 79.4603 67.7299 81.6928C64.8815 83.9253 61.6175 85.5726 58.1268 86.5393C55.6864 87.2158 53.1771 87.5622 50.6677 87.5622C44.1162 87.5454 37.7847 85.2029 32.8075 80.9545C32.7523 80.9133 32.6862 80.8968 32.6338 80.85C32.551 80.7813 32.4876 80.6961 32.4049 80.6246C31.6387 79.9415 30.9115 79.2163 30.2265 78.4522C29.9893 78.1828 29.7439 77.9188 29.5123 77.641C28.6489 76.6073 27.8627 75.5118 27.1602 74.3633C26.5846 73.4326 26.0653 72.4685 25.6049 71.4761C25.5222 71.2863 25.4505 71.0938 25.3678 70.9069C24.879 69.7961 24.4645 68.6543 24.1269 67.4889C23.7291 66.0429 23.4506 64.5668 23.2942 63.0755C23.1559 61.9194 23.0914 60.7558 23.1011 59.5915V59.509C23.1388 58.022 23.2974 56.5406 23.5754 55.0792C23.7686 54.023 24.0236 52.9791 24.3392 51.9527C24.3696 51.8509 24.3806 51.7409 24.4137 51.6364C24.4192 51.6254 24.4302 51.6172 24.433 51.6034C24.9955 49.8848 25.729 48.2047 26.639 46.5906C28.4061 43.4363 30.7828 40.6627 33.6317 38.4302C36.4806 36.1977 39.745 34.5506 43.2363 33.5842C45.6629 32.9031 48.1717 32.5571 50.6926 32.5558C57.3712 32.5558 63.6307 35.0058 68.4949 39.1277C68.5694 39.1745 68.6604 39.1855 68.7238 39.2432C68.9278 39.4219 69.0933 39.6309 69.2946 39.8152C69.8792 40.3486 70.4389 40.9123 70.9767 41.4953C71.302 41.8527 71.6247 42.2047 71.9307 42.5732C72.7766 43.597 73.547 44.6805 74.236 45.8152C74.7875 46.7171 75.2949 47.652 75.7444 48.6227C75.8298 48.8207 75.9098 49.0242 75.9953 49.2276C76.4723 50.3248 76.8997 51.455 77.2306 52.6346C77.6244 54.0673 77.901 55.5295 78.0579 57.0067C78.3398 59.4189 78.2934 61.8581 77.92 64.2579" fill="#B44E09"/>
<path d="M72.5041 57.004C72.4765 56.806 72.4655 56.608 72.4296 56.4128C72.3007 55.6398 72.1304 54.8743 71.9195 54.1195C71.5532 52.8518 71.0733 51.6195 70.4856 50.4375C69.6301 48.7193 68.5529 47.12 67.2814 45.6804C66.3572 46.8913 65.3502 48.0371 64.2675 49.1094C65.3787 51.1195 66.3163 53.2451 66.9505 55.5081C67.593 57.7822 67.9018 60.0892 68.0011 62.3908C69.4874 62.7483 70.9682 63.1882 72.4103 63.7492L72.471 63.3917C72.5565 62.8555 72.6144 62.3193 72.6585 61.7776C72.675 61.5411 72.6971 61.3046 72.7081 61.0682C72.733 60.5182 72.7302 59.9683 72.7109 59.421C72.7054 59.1928 72.7081 58.9646 72.6916 58.7336C72.6521 58.1539 72.5895 57.5788 72.5041 57.004Z" fill="#B44E09"/>
<path d="M59.9354 52.7034C57.6482 54.2914 55.1688 55.5848 52.5564 56.5531L54.1199 62.1076C54.892 61.9564 55.6696 61.7996 56.4279 61.7171C58.1319 61.4877 59.8536 61.4178 61.5706 61.5081C61.8491 61.5136 62.1414 61.5522 62.4282 61.5687C62.3115 60.0223 62.0493 58.4904 61.6451 56.993C61.2105 55.5131 60.6381 54.077 59.9354 52.7034Z" fill="#B44E09"/>
<path d="M61.1074 44.432C61.8326 43.6566 62.5247 42.8591 63.1534 42.0039C60.4825 40.1428 57.4314 38.8947 54.2192 38.3495C56.8112 40.0324 59.1468 42.0617 61.1074 44.432Z" fill="#B44E09"/>
<path d="M117.597 17.2066L83.1975 12.7574L106.564 95.8365C107.16 97.9648 106.895 100.192 105.812 102.106C105.282 103.051 104.57 103.882 103.717 104.552C102.864 105.221 101.886 105.715 100.84 106.005L65.602 115.86L104.152 120.835C104.876 120.927 105.608 120.73 106.187 120.285C106.765 119.84 107.143 119.184 107.237 118.462L119.977 20.2891C120.071 19.566 119.873 18.8354 119.426 18.2579C118.98 17.6803 118.322 17.3004 117.597 17.2066Z" fill="#B44E09"/>
</g>
</g>
<path d="M401.767 50.5614C401.767 52.2073 401.323 53.7943 400.434 55.3226C399.539 56.851 398.131 58.1049 396.209 59.0846C394.293 60.0708 391.782 60.564 388.676 60.564C386.912 60.564 385.372 60.4105 384.055 60.1035C382.732 59.8031 381.712 59.4994 380.995 59.1924C380.271 58.892 379.909 58.7417 379.909 58.7417V50.0617H383.019L383.67 55.6068C383.697 55.7962 383.799 56.0052 383.976 56.2338C384.154 56.4558 384.325 56.606 384.49 56.6844C384.569 56.6975 385.036 56.8901 385.892 57.2624C386.754 57.6282 387.949 57.811 389.476 57.811C391.582 57.811 393.316 57.3016 394.678 56.2827C396.047 55.2573 396.732 53.8368 396.732 52.0211C396.732 51.0349 396.456 50.1695 395.903 49.425C395.343 48.6869 394.622 48.0305 393.741 47.4558C392.859 46.881 391.914 46.3585 390.907 45.8883C389.907 45.418 388.956 44.9674 388.054 44.5363C386.705 43.8963 385.451 43.2138 384.292 42.4888C383.134 41.7638 382.203 40.8658 381.498 39.7947C380.787 38.7301 380.432 37.3683 380.432 35.7094C380.432 33.7631 380.932 32.0715 381.933 30.6346C382.927 29.2043 384.282 28.094 386 27.3037C387.725 26.5134 389.67 26.1183 391.835 26.1183C393.606 26.1183 395.165 26.2881 396.515 26.6277C397.864 26.9739 399.062 27.3135 400.108 27.6466L400.533 27.7935V35.4253H397.719L396.969 30.7326C396.936 30.5105 396.837 30.3473 396.673 30.2428C396.502 30.1383 396.344 30.0142 396.199 29.8705C396.074 29.779 395.676 29.5733 395.004 29.2533C394.339 28.9332 393.306 28.7732 391.904 28.7732C389.93 28.7732 388.373 29.3186 387.234 30.4093C386.089 31.5 385.517 32.8748 385.517 34.5338C385.517 36.0359 386.109 37.2801 387.294 38.2664C388.472 39.2591 390.17 40.1767 392.388 41.0193C395.376 42.1361 397.686 43.3901 399.319 44.7813C400.951 46.1789 401.767 48.1056 401.767 50.5614ZM429.026 50.6594V59.7704H405.015V57.6641L407.888 57.478C408.244 57.4453 408.504 57.3179 408.668 57.0959C408.839 56.8673 408.925 56.6354 408.925 56.4003V30.2819C408.925 30.0403 408.839 29.8052 408.668 29.5766C408.504 29.3414 408.244 29.2173 407.888 29.2043L405.015 29.0084V26.9118H417.623V29.0084L414.997 29.2043C414.641 29.2173 414.371 29.3414 414.187 29.5766C414.003 29.8052 413.911 30.0403 413.911 30.2819V57.38H424.277C424.501 57.38 424.734 57.2918 424.978 57.1155C425.215 56.9391 425.343 56.7465 425.363 56.5375L426.153 50.6594H429.026ZM464.044 43.3607C464.044 45.7381 463.662 47.962 462.899 50.0324C462.135 52.1093 461.046 53.9348 459.631 55.5088C458.216 57.0893 456.521 58.327 454.547 59.2218C452.572 60.1166 450.38 60.564 447.971 60.564C444.74 60.564 441.916 59.8096 439.501 58.3009C437.079 56.7922 435.193 54.7381 433.844 52.1387C432.494 49.5392 431.82 46.5969 431.82 43.3117C431.82 40.9213 432.192 38.6909 432.935 36.6205C433.686 34.5436 434.768 32.7181 436.183 31.1441C437.598 29.5635 439.293 28.3291 441.268 27.4409C443.242 26.5591 445.46 26.1183 447.922 26.1183C450.364 26.1183 452.572 26.5657 454.547 27.4605C456.521 28.3487 458.216 29.5864 459.631 31.1735C461.046 32.7605 462.135 34.5958 462.899 36.6793C463.662 38.7562 464.044 40.9833 464.044 43.3607ZM458.328 43.4097C458.328 40.745 457.943 38.3186 457.173 36.1306C456.403 33.9362 455.251 32.1858 453.717 30.8795C452.184 29.5733 450.268 28.9202 447.971 28.9202C445.589 28.9202 443.624 29.5766 442.077 30.8893C440.524 32.2021 439.369 33.9525 438.612 36.1404C437.862 38.3219 437.487 40.7123 437.487 43.3117C437.487 45.9307 437.862 48.344 438.612 50.5516C439.369 52.7591 440.514 54.5291 442.048 55.8615C443.581 57.1938 445.513 57.86 447.843 57.86C450.226 57.86 452.187 57.1938 453.727 55.8615C455.274 54.5291 456.429 52.7657 457.193 50.5712C457.949 48.3832 458.328 45.9961 458.328 43.4097ZM494.748 26.9118V34.7297H491.836L491.135 30.135C491.023 29.5798 490.75 29.3023 490.316 29.3023H483.257V56.4003C483.257 56.6354 483.339 56.8673 483.503 57.0959C483.675 57.3179 483.938 57.4453 484.293 57.478L487.443 57.6641V59.7704H474.065V57.6641L477.224 57.478C477.58 57.4453 477.843 57.3179 478.014 57.0959C478.179 56.8673 478.261 56.6354 478.261 56.4003V29.3023H471.153C470.672 29.3023 470.392 29.5798 470.313 30.135L469.632 34.7297H466.769V26.9118H494.748ZM519.332 50.5614C519.332 52.2073 518.887 53.7943 517.999 55.3226C517.104 56.851 515.695 58.1049 513.773 59.0846C511.858 60.0708 509.35 60.564 506.25 60.564C504.48 60.564 502.936 60.4105 501.62 60.1035C500.304 59.8031 499.283 59.4994 498.559 59.1924C497.835 58.892 497.473 58.7417 497.473 58.7417V50.0617H500.583L501.235 55.6068C501.268 55.7962 501.37 56.0052 501.541 56.2338C501.719 56.4558 501.89 56.606 502.054 56.6844C502.133 56.6975 502.604 56.8901 503.466 57.2624C504.322 57.6282 505.513 57.811 507.04 57.811C509.146 57.811 510.881 57.3016 512.243 56.2827C513.612 55.2573 514.296 53.8368 514.296 52.0211C514.296 51.0349 514.02 50.1695 513.467 49.425C512.908 48.6869 512.187 48.0305 511.305 47.4558C510.423 46.881 509.479 46.3585 508.472 45.8883C507.471 45.418 506.52 44.9674 505.618 44.5363C504.269 43.8963 503.015 43.2138 501.857 42.4888C500.698 41.7638 499.767 40.8658 499.063 39.7947C498.359 38.7301 498.006 37.3683 498.006 35.7094C498.006 33.7631 498.503 32.0715 499.497 30.6346C500.491 29.2043 501.85 28.094 503.575 27.3037C505.293 26.5134 507.234 26.1183 509.4 26.1183C511.17 26.1183 512.73 26.2881 514.079 26.6277C515.429 26.9739 516.626 27.3135 517.673 27.6466L518.107 27.7935V35.4253H515.284L514.533 30.7326C514.5 30.5105 514.402 30.3473 514.237 30.2428C514.066 30.1383 513.908 30.0142 513.763 29.8705C513.638 29.779 513.24 29.5733 512.569 29.2533C511.904 28.9332 510.874 28.7732 509.479 28.7732C507.497 28.7732 505.938 29.3186 504.799 30.4093C503.66 31.5 503.091 32.8748 503.091 34.5338C503.091 36.0359 503.68 37.2801 504.858 38.2664C506.043 39.2591 507.741 40.1767 509.952 41.0193C512.947 42.1361 515.257 43.3901 516.883 44.7813C518.515 46.1789 519.332 48.1056 519.332 50.5614Z" fill="#B44E09"/>
<path d="M262.726 26.9128V29.012L260.03 29.4926L250.024 45.8247V56.438C250.024 56.6735 250.113 56.9056 250.292 57.1345C250.471 57.3568 250.73 57.4843 251.068 57.517L254.251 57.7034V59.8123H240.823V57.7034L243.906 57.517C244.258 57.4843 244.526 57.3568 244.712 57.1345C244.904 56.9056 245 56.6735 245 56.438V46.5701L235.451 29.5907L232.567 29.012V26.9128H244.364V29.012L241.867 29.2572C241.41 29.3226 241.181 29.5122 241.181 29.8261C241.181 29.9896 241.214 30.1269 241.28 30.2381L248.303 43.0487L256.002 30.3852C256.061 30.2675 256.091 30.1531 256.091 30.0419C256.091 29.643 255.866 29.4141 255.415 29.3553L252.62 29.012V26.9128H262.726ZM297.619 43.3822C297.619 45.7625 297.234 47.9892 296.465 50.0622C295.696 52.1417 294.598 53.9694 293.173 55.5454C291.747 57.1279 290.04 58.3671 288.05 59.263C286.061 60.1589 283.849 60.6069 281.416 60.6069C278.166 60.6069 275.322 59.8516 272.881 58.341C270.448 56.8304 268.551 54.7738 267.192 52.1711C265.832 49.5684 265.153 46.6225 265.153 43.3332C265.153 40.9397 265.527 38.7066 266.277 36.6336C267.033 34.5541 268.123 32.7263 269.549 31.1503C270.968 29.5678 272.676 28.3319 274.672 27.4425C276.661 26.5597 278.896 26.1183 281.376 26.1183C283.836 26.1183 286.061 26.5662 288.05 27.4621C290.04 28.3515 291.747 29.5907 293.173 31.1797C294.598 32.7688 295.696 34.6064 296.465 36.6924C297.234 38.772 297.619 41.0019 297.619 43.3822ZM291.86 43.4312C291.86 40.7632 291.472 38.3338 290.696 36.1431C289.92 33.9459 288.76 32.1934 287.215 30.8855C285.67 29.5776 283.737 28.9237 281.416 28.9237C279.022 28.9237 277.046 29.5809 275.487 30.8953C273.922 32.2097 272.759 33.9622 271.996 36.1529C271.233 38.3371 270.852 40.7305 270.852 43.3332C270.852 45.9554 271.233 48.3717 271.996 50.582C272.759 52.7923 273.912 54.5645 275.458 55.8985C277.003 57.2326 278.949 57.8996 281.296 57.8996C283.697 57.8996 285.673 57.2326 287.225 55.8985C288.776 54.5645 289.937 52.7989 290.706 50.6017C291.475 48.411 291.86 46.0208 291.86 43.4312ZM333.626 26.9128V29.012L330.742 29.2081C330.384 29.2212 330.118 29.3455 329.946 29.5809C329.78 29.8098 329.697 30.0452 329.697 30.2871V48.9145C329.697 52.9362 328.607 55.8887 326.425 57.7721C324.25 59.6619 321.083 60.6069 316.926 60.6069C312.828 60.6069 309.777 59.6194 307.775 57.6446C305.779 55.6762 304.781 52.7662 304.781 48.9145V30.2871C304.781 30.0452 304.694 29.8098 304.522 29.5809C304.356 29.3455 304.094 29.2212 303.736 29.2081L301.09 29.012V26.9128H313.743V29.012L310.898 29.2081C310.54 29.2212 310.278 29.3455 310.112 29.5809C309.94 29.8098 309.854 30.0452 309.854 30.2871V47.6491C309.854 49.5652 310.072 51.2491 310.51 52.7008C310.948 54.1525 311.773 55.2871 312.987 56.1045C314.2 56.9154 315.958 57.3208 318.259 57.3208C320.553 57.3208 322.314 56.8925 323.54 56.0359C324.76 55.1857 325.603 54.025 326.067 52.5537C326.524 51.0888 326.753 49.454 326.753 47.6491V30.2871C326.753 30.0452 326.66 29.8098 326.475 29.5809C326.289 29.3455 326.017 29.2212 325.659 29.2081L322.824 29.012V26.9128H333.626ZM367.237 57.7524V59.9595C367.024 59.9726 366.61 60.0837 365.993 60.293C365.383 60.5023 364.703 60.6069 363.954 60.6069C362.257 60.6069 360.91 60.3257 359.916 59.7633C358.921 59.2075 358.152 58.4685 357.608 57.5465C357.064 56.6309 356.633 55.6206 356.315 54.5155C356.003 53.4169 355.685 52.3215 355.36 51.2294C355.035 50.1374 354.591 49.1303 354.027 48.2083C353.457 47.2927 352.661 46.5538 351.64 45.9914C350.625 45.4356 349.243 45.1576 347.492 45.1576C346.975 45.1576 346.484 45.174 346.02 45.2067C345.563 45.2394 345.307 45.2557 345.254 45.2557V56.438C345.254 56.6735 345.34 56.9056 345.513 57.1345C345.685 57.3568 345.947 57.4843 346.299 57.517L348.925 57.7034V59.8123H336.561V57.7034L339.137 57.517C339.495 57.4843 339.767 57.3568 339.953 57.1345C340.138 56.9056 340.231 56.6735 340.231 56.438V30.2871C340.231 30.0452 340.138 29.8098 339.953 29.5809C339.767 29.3455 339.495 29.2212 339.137 29.2081L336.561 29.012V26.9128H349.531C353.304 26.9128 356.279 27.5537 358.454 28.8354C360.635 30.1236 361.726 32.3863 361.726 35.6232C361.726 37.33 361.335 38.7327 360.552 39.8313C359.777 40.9234 358.772 41.7801 357.538 42.4013C356.298 43.0225 354.972 43.4934 353.56 43.8138C355.098 44.18 356.302 44.7032 357.17 45.3832C358.039 46.0633 358.682 46.835 359.1 47.6982C359.518 48.5548 359.833 49.4475 360.045 50.376C360.257 51.3046 360.469 52.2071 360.682 53.0833C360.887 53.9596 361.206 54.7509 361.637 55.4571C362.068 56.1568 362.721 56.716 363.596 57.1345C364.465 57.5465 365.678 57.7524 367.237 57.7524ZM356.305 35.839C356.305 33.7464 355.629 32.1345 354.276 31.0032C352.93 29.8719 350.685 29.3062 347.542 29.3062H345.254V42.7348C345.34 42.7348 345.679 42.7446 346.269 42.7642C346.859 42.7773 347.346 42.7838 347.731 42.7838C350.503 42.7838 352.625 42.2803 354.097 41.2733C355.569 40.2727 356.305 38.4613 356.305 35.839Z" fill="#B44E09"/>
<path d="M159.828 46.3857V44.2202H146.673V46.3857L150.042 46.6351C150.406 46.6484 150.675 46.7615 150.85 46.9744C151.018 47.1873 151.102 47.4235 151.102 47.6829V57.642C150.987 57.642 150.5 57.7684 149.639 58.0212C148.778 58.274 147.789 58.4004 146.673 58.4004C142.732 58.4004 139.591 57.0898 137.251 54.4687C134.91 51.8408 133.74 48.132 133.74 43.3421C133.74 40.2419 134.261 37.6174 135.304 35.4686C136.346 33.3265 137.796 31.6999 139.652 30.5889C141.508 29.4779 143.643 28.9224 146.058 28.9224C147.127 28.9224 148.092 29.0588 148.953 29.3315C149.814 29.6109 150.5 29.8637 151.011 30.0899C151.139 30.1565 151.236 30.1964 151.303 30.2097C151.532 30.3095 151.744 30.4592 151.939 30.6587C152.141 30.865 152.265 31.1144 152.312 31.4072L153.129 35.8877H156.156V27.8247L155.319 27.6052C153.92 27.2326 152.49 26.89 151.031 26.5773C149.572 26.2713 147.978 26.1183 146.249 26.1183C142.49 26.1183 139.245 26.8434 136.514 28.2937C133.777 29.7506 131.675 31.7897 130.209 34.4108C128.736 37.0386 128 40.0956 128 43.5816C128 45.89 128.39 48.0987 129.17 50.2076C129.95 52.3232 131.094 54.2059 132.6 55.8557C134.1 57.4989 135.943 58.8029 138.128 59.7675C140.307 60.7255 142.803 61.2045 145.614 61.2045C147.436 61.2045 149.151 61.0382 150.759 60.7055C152.366 60.3662 153.678 60.0303 154.693 59.6977L156.206 59.1987V47.6829C156.206 47.4235 156.29 47.1873 156.458 46.9744C156.633 46.7615 156.902 46.6484 157.266 46.6351L159.828 46.3857Z" fill="#B44E09"/>
<path d="M188.861 60.3962V52.0637H186.148L185.24 57.0133C185.22 57.173 185.115 57.3692 184.927 57.6021C184.739 57.8416 184.54 57.9613 184.332 57.9613H171.57V44.2202H179.126C179.342 44.2202 179.547 44.3267 179.742 44.5395C179.944 44.7458 180.044 44.9387 180.044 45.1183L180.559 48.581H183.121V37.4445H180.559L180.044 40.8772C180.044 41.0569 179.95 41.2465 179.762 41.446C179.574 41.639 179.362 41.7354 179.126 41.7354H171.57V29.3116H182.506C182.735 29.3116 182.94 29.408 183.121 29.601C183.303 29.7939 183.4 30.0134 183.414 30.2596L184.181 34.351H187.207V26.9266H162.703V29.0621L165.316 29.2617C165.679 29.275 165.955 29.4014 166.143 29.6409C166.331 29.8737 166.425 30.1132 166.425 30.3594V56.9634C166.425 57.2029 166.331 57.4391 166.143 57.6719C165.955 57.8981 165.679 58.0278 165.316 58.0611L162.703 58.2507V60.3962H188.861Z" fill="#B44E09"/>
<path d="M219.892 34.8898V26.9266H191.293V34.8898H194.228L194.914 30.2097C194.995 29.6442 195.284 29.3615 195.782 29.3615H203.045V56.9634C203.045 57.2029 202.958 57.4391 202.783 57.6719C202.615 57.8981 202.349 58.0278 201.986 58.0611L198.758 58.2507V60.3962H212.427V58.2507L209.199 58.0611C208.836 58.0278 208.57 57.8981 208.402 57.6719C208.227 57.4391 208.14 57.2029 208.14 56.9634V29.3615H215.353C215.797 29.3615 216.076 29.6442 216.19 30.2097L216.906 34.8898H219.892Z" fill="#B44E09"/>
<line x1="128" y1="68.7045" x2="514" y2="68.7045" stroke="black"/>
<path d="M132.216 94.3027L132.372 93.1128C132.992 92.9921 133.441 92.8369 133.717 92.6472C133.993 92.4575 134.174 92.1988 134.26 91.8712C134.346 91.5435 134.389 91.0262 134.389 90.3191V89.181C134.389 88.6464 134.337 88.1756 134.234 87.7686C134.131 87.3651 133.932 86.8616 133.639 86.258L131.311 81.5243C130.863 80.6103 130.544 79.993 130.354 79.6722C130.164 79.3549 129.897 79.1014 129.552 78.9117C129.207 78.722 128.707 78.6013 128.052 78.5496L128 78.4461L128.155 77.4373C128.345 77.4545 128.707 77.4718 129.242 77.489C129.776 77.5063 130.363 77.5149 131.001 77.5149C131.604 77.5149 132.308 77.4856 133.111 77.4269C133.912 77.3648 134.432 77.3252 134.674 77.3079L134.751 77.489L134.674 78.3944C133.898 78.4633 133.377 78.5616 133.111 78.6892C132.842 78.8203 132.708 79.0324 132.708 79.3256C132.708 79.5498 132.923 80.162 133.354 81.1621C133.786 82.1623 134.231 83.1453 134.689 84.111C135.145 85.0767 135.45 85.7062 135.605 85.9993H135.734L138.683 80.5155C138.959 80.0154 139.097 79.5843 139.097 79.2221C139.097 78.7737 138.554 78.5151 137.467 78.4461L137.416 78.3426L137.571 77.3338C137.778 77.351 138.209 77.3855 138.864 77.4373C139.52 77.489 140.045 77.5149 140.442 77.5149C140.856 77.5149 141.318 77.5011 141.829 77.4735C142.336 77.4493 142.667 77.4287 142.822 77.4114L142.925 77.5925L142.77 78.5496C142.218 78.653 141.787 78.7944 141.477 78.9738C141.166 79.1566 140.896 79.4153 140.665 79.7498C140.43 80.0878 140.089 80.6534 139.64 81.4467C139.537 81.6536 139.451 81.8088 139.382 81.9123L136.795 86.4649C136.571 86.8616 136.429 87.3099 136.371 87.81C136.309 88.3101 136.26 89.2155 136.226 90.5261V91.0951C136.209 91.7677 136.283 92.2281 136.448 92.4765C136.61 92.7282 136.916 92.8541 137.364 92.8541C137.64 92.8541 137.898 92.8455 138.14 92.8283C138.381 92.811 138.545 92.7938 138.631 92.7765L138.683 92.88L138.45 94.0699C138.209 94.0526 137.766 94.0354 137.121 94.0181C136.472 94.0009 135.82 93.9923 135.165 93.9923C134.631 93.9923 134.053 94.0354 133.432 94.1216C132.811 94.2078 132.406 94.2682 132.216 94.3027ZM150.091 94.3027C148.694 94.3027 147.452 93.9664 146.366 93.2939C145.279 92.6213 144.434 91.6763 143.831 90.4588C143.227 89.2448 142.925 87.8618 142.925 86.3097C142.925 84.6197 143.3 83.0798 144.048 81.6898C144.8 80.3034 145.826 79.2083 147.126 78.4047C148.43 77.6045 149.866 77.2045 151.436 77.2045C152.867 77.2045 154.134 77.5407 155.238 78.2133C156.342 78.8858 157.204 79.8257 157.825 81.0328C158.446 82.2399 158.756 83.6195 158.756 85.1716C158.756 86.8616 158.371 88.405 157.602 89.8018C156.837 91.1986 155.793 92.2971 154.472 93.0973C153.155 93.9009 151.694 94.3027 150.091 94.3027ZM150.892 92.9835C151.979 92.9835 152.945 92.6989 153.79 92.1298C154.635 91.5608 155.29 90.7675 155.755 89.7501C156.221 88.7326 156.454 87.5686 156.454 86.258C156.454 84.7922 156.204 83.4936 155.704 82.3624C155.204 81.2346 154.509 80.3516 153.619 79.7136C152.732 79.0755 151.712 78.7565 150.556 78.7565C149.504 78.7565 148.568 79.041 147.747 79.6101C146.93 80.1792 146.292 80.9725 145.833 81.9899C145.378 83.0073 145.15 84.1714 145.15 85.482C145.15 86.9478 145.391 88.2446 145.874 89.3724C146.357 90.5037 147.033 91.3883 147.902 92.0264C148.775 92.6644 149.772 92.9835 150.892 92.9835ZM168.244 94.3027C166.433 94.3027 165.038 93.8078 164.059 92.8179C163.076 91.8246 162.584 90.414 162.584 88.586V80.024C162.584 79.4722 162.519 79.1014 162.388 78.9117C162.26 78.722 162.007 78.6272 161.627 78.6272C161.455 78.6272 161.282 78.6358 161.11 78.653C160.937 78.6703 160.817 78.6789 160.748 78.6789L160.696 78.5754L160.877 77.4373C161.084 77.4545 161.476 77.4718 162.052 77.489C162.631 77.5063 163.214 77.5149 163.8 77.5149C164.262 77.5149 164.788 77.4856 165.378 77.4269C165.964 77.3648 166.344 77.3166 166.516 77.2821L166.413 78.4461C165.775 78.5323 165.347 78.6737 165.13 78.8703C164.916 79.0704 164.79 79.4204 164.752 79.9205L164.55 87.5255C164.55 89.2327 164.919 90.5433 165.657 91.4573C166.402 92.3713 167.473 92.8283 168.87 92.8283C170.284 92.8283 171.362 92.454 172.103 91.7056C172.845 90.9537 173.216 89.8708 173.216 88.4567C173.199 87.0771 173.173 85.5027 173.138 83.7333C173.104 81.9675 173.078 80.731 173.061 80.024C173.026 79.4204 172.952 79.0359 172.838 78.8703C172.728 78.7082 172.483 78.6272 172.103 78.6272C171.897 78.6272 171.681 78.6358 171.457 78.653C171.233 78.6703 171.077 78.6789 170.991 78.6789L170.939 78.5754L171.121 77.4373C171.327 77.4545 171.719 77.4718 172.295 77.489C172.871 77.5063 173.454 77.5149 174.044 77.5149C174.509 77.5149 175.004 77.4856 175.528 77.4269C176.056 77.3648 176.397 77.3166 176.553 77.2821L176.449 78.4461C175.932 78.5151 175.547 78.5961 175.295 78.6892C175.047 78.7858 174.88 78.9238 174.794 79.1031C174.707 79.2859 174.664 79.5584 174.664 79.9205V88.6119C174.664 90.4226 174.104 91.8246 172.983 92.8179C171.862 93.8078 170.282 94.3027 168.244 94.3027ZM190.645 94.4062C190.214 94.4062 189.753 94.1854 189.264 93.7439C188.771 93.3059 188.317 92.7075 187.903 91.9488L185.135 86.9305H182.988L182.911 90.7847C182.911 91.44 182.954 91.9091 183.04 92.1919C183.126 92.4782 183.29 92.6679 183.532 92.761C183.773 92.8576 184.187 92.9059 184.773 92.9059L184.825 93.0093L184.592 94.0957C184.385 94.0785 183.971 94.0613 183.351 94.044C182.73 94.0268 182.083 94.0181 181.41 94.0181C180.807 94.0181 180.272 94.0268 179.807 94.044C179.341 94.0613 179.031 94.0785 178.875 94.0957L179.108 92.9317C179.66 92.8627 180.074 92.7679 180.35 92.6472C180.626 92.5265 180.816 92.3316 180.919 92.0626C181.022 91.797 181.074 91.4056 181.074 90.8882L181.1 80.024C181.1 79.4722 181.036 79.1014 180.909 78.9117C180.778 78.722 180.522 78.6272 180.143 78.6272C179.971 78.6272 179.798 78.6358 179.626 78.653C179.453 78.6703 179.332 78.6789 179.264 78.6789L179.212 78.5754L179.393 77.4373C179.6 77.4545 179.988 77.4718 180.557 77.489C181.126 77.5063 181.695 77.5149 182.264 77.5149C182.85 77.5149 183.468 77.5011 184.116 77.4735C184.761 77.4493 185.204 77.4287 185.446 77.4114C187.05 77.4114 188.317 77.7735 189.248 78.4978C190.179 79.2221 190.645 80.2137 190.645 81.4726C190.645 82.5072 190.314 83.4557 189.652 84.3179C188.986 85.1802 188.05 85.8872 186.843 86.4391L189.688 90.9399C190.188 91.7677 190.676 92.3402 191.152 92.6575C191.625 92.9783 192.206 93.1387 192.895 93.1387L192.999 93.2421L192.844 94.1216L190.645 94.4062ZM185.704 85.7406C185.704 85.7924 185.963 85.6803 186.48 85.4044C186.998 85.1285 187.463 84.706 187.877 84.1369C188.291 83.5678 188.498 82.8349 188.498 81.9382C188.498 79.6619 186.92 78.5237 183.764 78.5237C183.592 78.5237 183.476 78.5616 183.418 78.6375C183.356 78.7168 183.316 78.8772 183.299 79.1186C183.144 81.7571 183.057 83.8782 183.04 85.482L185.704 85.7406Z" fill="#B44E09"/>
<path d="M211.944 94.739C211.681 93.8614 211.087 91.9306 210.164 88.9468C209.244 85.9629 208.319 83.0405 207.389 80.1795C207.231 79.6705 206.959 79.2967 206.573 79.058C206.187 78.8228 205.652 78.6964 204.967 78.6788L204.914 78.5735L205.099 77.4414C205.327 77.4414 205.752 77.4537 206.373 77.4783C206.998 77.5064 207.591 77.5204 208.153 77.5204C208.732 77.5204 209.464 77.48 210.348 77.3993C211.237 77.3221 211.821 77.2659 212.102 77.2308L212.181 77.4151L212.076 78.4419C211.128 78.5121 210.499 78.6174 210.191 78.7578C209.885 78.8982 209.732 79.1615 209.732 79.5477C209.732 79.8987 210.198 81.7189 211.128 85.0081C212.058 88.3009 212.699 90.544 213.05 91.7376H213.287C216.2 84.2253 217.657 80.1883 217.657 79.6267C217.657 79.2581 217.517 78.9895 217.236 78.821C216.955 78.656 216.49 78.5735 215.841 78.5735H214.471L214.419 78.4682L214.577 77.3361C214.805 77.3537 215.309 77.3888 216.088 77.4414C216.871 77.4941 217.622 77.5204 218.342 77.5204C218.991 77.5204 219.591 77.5116 220.143 77.4941C220.697 77.4765 221.062 77.459 221.238 77.4414L221.027 78.6788C220.483 78.6964 220.106 78.7842 219.895 78.9421C219.684 79.1001 219.483 79.4336 219.289 79.9426L213.629 94.1597L211.944 94.739ZM222.686 94.6073L222.844 93.3962C223.669 93.2383 224.225 93.0048 224.513 92.6959C224.804 92.3905 224.95 91.8692 224.95 91.132L224.976 80.0742C224.976 79.5126 224.91 79.1352 224.776 78.9421C224.646 78.749 224.388 78.6525 224.002 78.6525L222.896 78.7052L222.844 78.5999L223.028 77.4414C223.309 77.4414 223.528 77.4502 223.686 77.4677L226.161 77.5204C226.951 77.5204 227.96 77.4414 229.189 77.2835L229.084 78.4682C228.364 78.556 227.876 78.6999 227.62 78.9C227.367 79.1036 227.223 79.4599 227.188 79.9689C227.083 82.0225 226.995 84.1674 226.925 86.4035C226.854 88.6431 226.819 90.2895 226.819 91.3426C226.819 92.0623 226.898 92.5397 227.056 92.7749C227.214 93.0136 227.521 93.1329 227.978 93.1329C228.276 93.1329 228.741 93.1066 229.373 93.054L229.426 93.1593L229.189 94.3704C228.943 94.3704 228.75 94.3616 228.61 94.344C227.381 94.3089 226.424 94.2914 225.74 94.2914C224.88 94.2914 223.862 94.3967 222.686 94.6073ZM236.476 94.6073C235.739 94.6073 235.064 94.5424 234.449 94.4125C233.835 94.2791 233.331 94.1334 232.938 93.9754C232.541 93.8175 232.343 93.7297 232.343 93.7122L232.211 93.4489C232.229 93.3436 232.264 93.0803 232.317 92.659C232.369 92.2378 232.418 91.6884 232.464 91.0109C232.506 90.3369 232.527 89.6225 232.527 88.8678L233.712 88.7362C233.712 90.0526 233.8 91.0267 233.975 91.6586C234.151 92.2905 234.476 92.724 234.949 92.9592C235.423 93.1979 236.152 93.3172 237.135 93.3172C238.24 93.3172 239.127 93.0575 239.794 92.5379C240.461 92.0219 240.794 91.3163 240.794 90.4212C240.794 89.8946 240.615 89.4207 240.257 88.9994C239.896 88.5782 239.469 88.2184 238.978 87.92C238.486 87.6216 237.758 87.2179 236.792 86.7089C235.88 86.235 235.134 85.7997 234.554 85.403C233.975 85.0099 233.489 84.5412 233.096 83.9971C232.699 83.453 232.501 82.8211 232.501 82.1015C232.501 81.1888 232.769 80.3586 233.307 79.6109C233.84 78.8666 234.569 78.2787 235.492 77.8469C236.411 77.4186 237.433 77.2045 238.556 77.2045C239.258 77.2045 239.908 77.2519 240.505 77.3466C241.101 77.4449 241.575 77.5467 241.926 77.652C242.277 77.7574 242.497 77.8276 242.585 77.8627L242.664 78.0206C242.646 78.126 242.602 78.3717 242.532 78.7578C242.462 79.144 242.383 79.6793 242.295 80.3638C242.207 81.0484 242.137 81.7504 242.084 82.4701L241.058 82.5754L240.9 82.4438C240.917 82.3735 240.935 82.2103 240.952 81.9541C240.97 81.7013 240.979 81.4082 240.979 81.0747C240.979 80.1444 240.75 79.5038 240.294 79.1527C239.838 78.8017 239.021 78.6262 237.846 78.6262C236.88 78.6262 236.087 78.8666 235.465 79.3476C234.841 79.832 234.528 80.434 234.528 81.1537C234.528 81.8558 234.832 82.4648 235.439 82.9808C236.043 83.5004 236.933 84.0673 238.109 84.6816C239.25 85.2609 240.118 85.7383 240.715 86.1139C241.312 86.493 241.839 86.9634 242.295 87.5251C242.751 88.0867 242.979 88.7362 242.979 89.4733C242.979 90.4563 242.704 91.3374 242.153 92.1167C241.598 92.8995 240.829 93.5103 239.846 93.9491C238.864 94.3879 237.74 94.6073 236.476 94.6073ZM253.405 94.5547L253.326 94.3704L253.432 93.3436C254.327 93.2734 254.941 93.1681 255.275 93.0276C255.608 92.8872 255.775 92.659 255.775 92.3431C255.775 91.9921 255.696 91.5708 255.538 91.0794L254.669 88.2096C254.248 88.192 253.335 88.1833 251.931 88.1833C251.089 88.1833 250.132 88.2535 249.061 88.3939L248.087 91.132C247.929 91.6059 247.85 91.9482 247.85 92.1588C247.85 92.545 247.973 92.8205 248.219 92.9855C248.464 93.154 248.868 93.2383 249.43 93.2383H250.931L250.983 93.3436L250.825 94.4757C250.615 94.4581 250.132 94.423 249.377 94.3704C248.622 94.3177 247.885 94.2914 247.166 94.2914C246.516 94.2914 245.916 94.3002 245.365 94.3177C244.81 94.3353 244.445 94.3528 244.27 94.3704L244.48 93.1329C244.972 93.0803 245.367 92.9083 245.665 92.6169C245.963 92.3291 246.253 91.8253 246.534 91.1057L251.668 77.652L253.326 77.2045H253.537C253.642 77.6257 253.911 78.5999 254.343 80.1269C254.771 81.6539 255.297 83.4618 255.922 85.5505C256.544 87.6392 257.144 89.5611 257.723 91.3163C257.934 91.9657 258.215 92.4221 258.566 92.6854C258.917 92.9487 259.478 93.1154 260.251 93.1856L260.303 93.2909L260.119 94.3704C259.908 94.3704 259.528 94.3581 258.976 94.3335C258.422 94.3054 257.872 94.2914 257.328 94.2914C256.486 94.2914 255.675 94.3265 254.896 94.3967C254.113 94.4669 253.616 94.5196 253.405 94.5547ZM249.535 87.1038H251.852C252.484 87.1038 253.3 87.0599 254.301 86.9722L252.221 80.0742H252.036L249.535 87.1038Z" fill="#B44E09"/>
<path d="M284.092 89.2296L284.168 89.3556C283.882 90.717 283.655 92.1287 283.487 93.5909L283.361 93.7422C279.832 93.6245 277.285 93.5657 275.722 93.5657C274.479 93.5657 273.311 93.6497 272.218 93.8178L272.37 92.6581C273.126 92.5573 273.642 92.359 273.917 92.0632C274.196 91.7708 274.336 91.2632 274.336 90.5405L274.361 79.9523C274.361 79.4145 274.297 79.0532 274.17 78.8683C274.045 78.6834 273.798 78.591 273.428 78.591L272.571 78.6414L272.521 78.5406L272.697 77.4314C274.412 77.4818 275.58 77.507 276.201 77.507C278.201 77.507 279.756 77.4851 280.865 77.4414C281.974 77.4011 282.941 77.3221 283.764 77.2045L283.84 77.3557C283.537 78.6834 283.344 80.0784 283.26 81.5406L282.05 81.6414L282.101 80.5574C282.101 79.9692 282.025 79.5608 281.874 79.3322C281.722 79.107 281.395 78.9557 280.89 78.8784C280.386 78.8045 279.504 78.7675 278.243 78.7675C277.655 78.7675 277.252 78.7843 277.033 78.8179C276.815 78.8515 276.672 78.9305 276.605 79.0549C276.538 79.1826 276.496 79.4145 276.479 79.7507L276.277 84.6414L278.874 84.6666C279.529 84.6666 280.554 84.5742 281.949 84.3893L282.05 84.5153L281.697 86.0027C279.832 85.9523 278.655 85.9271 278.168 85.9271C277.613 85.9271 276.966 85.9859 276.227 86.1036L276.126 90.9187C276.126 91.406 276.168 91.7455 276.252 91.9371C276.336 92.1321 276.507 92.2632 276.766 92.3304C277.028 92.3976 277.479 92.4313 278.117 92.4313C279.529 92.4313 280.532 92.364 281.127 92.2296C281.726 92.0951 282.151 91.8262 282.403 91.4229C282.655 91.0195 282.848 90.3304 282.983 89.3556L284.092 89.2296ZM294.852 93.7674L294.776 93.5909L294.877 92.6077C295.566 92.5741 296.067 92.4901 296.379 92.3556C296.689 92.2212 296.843 92.0111 296.843 91.7254C296.843 91.4733 296.675 91.1035 296.339 90.6161L293.591 86.4817L291.272 89.5573C290.751 90.2464 290.406 90.7338 290.238 91.0195C290.07 91.3052 289.986 91.5657 289.986 91.801C289.986 92.0195 290.104 92.1909 290.339 92.3153C290.574 92.443 290.944 92.5237 291.448 92.5573L291.499 92.6581L291.322 93.7422C291.121 93.7254 290.706 93.6917 290.077 93.6413C289.445 93.5909 288.936 93.5657 288.549 93.5657C288.146 93.5657 287.672 93.5791 287.127 93.606C286.579 93.6296 286.222 93.6497 286.053 93.6665L285.953 93.4901L286.129 92.4565C286.818 92.2548 287.457 91.8884 288.045 91.3573C288.633 90.8296 289.356 90.0363 290.213 88.9775L292.986 85.5489L289.684 80.6078C289.264 79.986 288.776 79.507 288.221 79.1708C287.667 78.8347 287.003 78.6162 286.23 78.5154L286.179 78.4145L286.331 77.4314C286.6 77.4314 287.095 77.4431 287.818 77.4667C288.541 77.4935 289.255 77.507 289.961 77.507C290.784 77.507 291.516 77.4784 292.154 77.4213C292.793 77.3608 293.196 77.3221 293.364 77.3053L293.44 77.4818L293.364 78.3641C292.658 78.4145 292.154 78.5103 291.852 78.6515C291.549 78.7961 291.398 79.0028 291.398 79.2717C291.398 79.4566 291.63 79.9305 292.094 80.6935C292.554 81.4599 293.272 82.5826 294.247 84.0616L295.205 82.7759C295.927 81.8347 296.499 81.0565 296.919 80.4414C297.339 79.8297 297.549 79.4061 297.549 79.1708C297.549 78.9524 297.437 78.7843 297.211 78.6666C296.983 78.549 296.608 78.465 296.087 78.4145L296.037 78.3137L296.188 77.3305C296.389 77.3473 296.806 77.3809 297.438 77.4314C298.067 77.4818 298.574 77.507 298.961 77.507C299.364 77.507 299.831 77.4935 300.363 77.4667C300.89 77.4431 301.238 77.423 301.406 77.4061L301.507 77.5826L301.356 78.5154C300.633 78.6666 300.07 78.9053 299.667 79.2313C299.263 79.5608 298.684 80.196 297.927 81.1372L294.877 84.9943L298.558 90.364C299.011 91.0363 299.504 91.5355 300.035 91.8615C300.563 92.1909 301.221 92.3892 302.011 92.4565L302.062 92.5573L301.885 93.6413C301.667 93.6245 301.255 93.6077 300.65 93.5909C300.045 93.5741 299.415 93.5657 298.759 93.5657C298.171 93.5657 297.44 93.5959 296.566 93.6565C295.692 93.7136 295.121 93.7506 294.852 93.7674ZM303.776 93.7674L303.952 92.6077C304.692 92.4733 305.179 92.275 305.415 92.0128C305.65 91.7539 305.768 91.2632 305.768 90.5405L305.793 79.9523C305.793 79.4145 305.731 79.0532 305.606 78.8683C305.478 78.6834 305.23 78.591 304.86 78.591C304.692 78.591 304.524 78.5994 304.356 78.6162C304.188 78.633 304.07 78.6414 304.003 78.6414L303.952 78.5406L304.129 77.4314C304.331 77.4482 304.709 77.465 305.263 77.4818C305.818 77.4986 306.373 77.507 306.927 77.507C307.448 77.507 308.041 77.4935 308.707 77.4667C309.369 77.4431 309.835 77.423 310.104 77.4061C311.852 77.4061 313.188 77.7927 314.112 78.5658C315.036 79.3389 315.499 80.4481 315.499 81.8935C315.499 82.8347 315.226 83.7305 314.682 84.5809C314.134 85.4279 313.415 86.112 312.524 86.633C311.633 87.154 310.7 87.4145 309.726 87.4145H307.608L307.557 89.8851C307.557 90.6918 307.583 91.2666 307.633 91.6094C307.683 91.9556 307.781 92.1825 307.926 92.2901C308.067 92.401 308.314 92.4565 308.667 92.4565C308.952 92.4565 309.226 92.4481 309.489 92.4313C309.747 92.4144 309.927 92.3976 310.028 92.3808L310.078 92.4817L309.852 93.6413C309.683 93.6245 309.378 93.6077 308.934 93.5909C308.487 93.5741 308.02 93.5657 307.532 93.5657C306.86 93.5657 306.075 93.5909 305.178 93.6413C304.277 93.6917 303.81 93.7338 303.776 93.7674ZM310.331 86.3052C311.339 86.1372 312.1 85.7254 312.615 85.07C313.125 84.4145 313.381 83.5153 313.381 82.3725C313.381 81.0784 312.999 80.1322 312.236 79.5339C311.47 78.9389 310.272 78.6414 308.641 78.6414C308.339 78.6414 308.154 78.6582 308.087 78.6919C308.02 78.7255 307.978 78.8263 307.961 78.9944C307.81 81.1288 307.709 83.4397 307.658 85.9271L310.331 86.3052ZM329.414 89.2296L329.49 89.3556C329.204 90.717 328.977 92.1287 328.809 93.5909L328.683 93.7422C325.154 93.6245 322.608 93.5657 321.045 93.5657C319.801 93.5657 318.633 93.6497 317.541 93.8178L317.692 92.6581C318.448 92.5573 318.964 92.359 319.24 92.0632C319.519 91.7708 319.658 91.2632 319.658 90.5405L319.683 79.9523C319.683 79.4145 319.62 79.0532 319.492 78.8683C319.367 78.6834 319.12 78.591 318.751 78.591L317.893 78.6414L317.843 78.5406L318.02 77.4314C319.734 77.4818 320.902 77.507 321.524 77.507C323.524 77.507 325.078 77.4851 326.188 77.4414C327.297 77.4011 328.263 77.3221 329.087 77.2045L329.162 77.3557C328.86 78.6834 328.667 80.0784 328.582 81.5406L327.372 81.6414L327.423 80.5574C327.423 79.9692 327.347 79.5608 327.196 79.3322C327.045 79.107 326.717 78.9557 326.213 78.8784C325.709 78.8045 324.826 78.7675 323.566 78.7675C322.977 78.7675 322.574 78.7843 322.356 78.8179C322.137 78.8515 321.994 78.9305 321.927 79.0549C321.86 79.1826 321.818 79.4145 321.801 79.7507L321.599 84.6414L324.196 84.6666C324.851 84.6666 325.877 84.5742 327.272 84.3893L327.372 84.5153L327.019 86.0027C325.154 85.9523 323.977 85.9271 323.49 85.9271C322.935 85.9271 322.288 85.9859 321.549 86.1036L321.448 90.9187C321.448 91.406 321.49 91.7455 321.574 91.9371C321.658 92.1321 321.83 92.2632 322.088 92.3304C322.351 92.3976 322.801 92.4313 323.44 92.4313C324.851 92.4313 325.855 92.364 326.45 92.2296C327.048 92.0951 327.473 91.8262 327.725 91.4229C327.977 91.0195 328.171 90.3304 328.305 89.3556L329.414 89.2296ZM343.885 93.9691C343.465 93.9691 343.014 93.7539 342.534 93.3237C342.056 92.8968 341.616 92.3136 341.213 91.5741L338.515 86.6834H336.423L336.347 90.4397C336.347 91.0783 336.389 91.5355 336.473 91.8111C336.557 92.0901 336.717 92.2749 336.952 92.3657C337.187 92.4598 337.591 92.5069 338.162 92.5069L338.213 92.6077L337.986 93.6665C337.784 93.6497 337.381 93.6329 336.776 93.6161C336.171 93.5993 335.54 93.5909 334.885 93.5909C334.297 93.5909 333.776 93.5993 333.322 93.6161C332.868 93.6329 332.566 93.6497 332.414 93.6665L332.641 92.5321C333.179 92.4649 333.582 92.3724 333.851 92.2548C334.12 92.1371 334.305 91.9472 334.406 91.685C334.507 91.4262 334.557 91.0447 334.557 90.5405L334.582 79.9523C334.582 79.4145 334.519 79.0532 334.391 78.8683C334.266 78.6834 334.019 78.591 333.65 78.591C333.482 78.591 333.314 78.5994 333.145 78.6162C332.977 78.633 332.86 78.6414 332.793 78.6414L332.742 78.5406L332.919 77.4314C333.12 77.4482 333.498 77.465 334.053 77.4818C334.608 77.4986 335.162 77.507 335.717 77.507C336.288 77.507 336.888 77.4935 337.517 77.4667C338.149 77.4431 338.582 77.423 338.818 77.4061C340.381 77.4061 341.616 77.7591 342.524 78.465C343.431 79.1708 343.885 80.1372 343.885 81.3641C343.885 82.3725 343.56 83.2969 342.912 84.1372C342.266 84.9775 341.355 85.6666 340.179 86.2044L342.952 90.5909C343.439 91.3976 343.913 91.9556 344.374 92.2649C344.838 92.5775 345.406 92.7338 346.078 92.7338L346.179 92.8346L346.028 93.6917L343.885 93.9691ZM339.07 85.5237C339.07 85.5742 339.322 85.4649 339.826 85.196C340.33 84.9271 340.784 84.5153 341.187 83.9607C341.591 83.4061 341.792 82.6918 341.792 81.8179C341.792 79.5994 340.255 78.4902 337.179 78.4902C337.011 78.4902 336.897 78.5271 336.836 78.6011C336.779 78.6784 336.742 78.8347 336.725 79.07C336.574 81.6414 336.49 83.7086 336.473 85.2716L339.07 85.5237ZM349.527 93.6665L349.729 92.5825C350.569 92.5153 351.149 92.4094 351.468 92.2649C351.787 92.1237 351.997 91.8632 352.098 91.4834C352.199 91.1069 352.249 90.4397 352.249 89.4817V78.4902C350.821 78.5406 349.851 78.6196 349.34 78.7271C348.826 78.8381 348.476 79.0818 348.292 79.4582C348.107 79.8381 347.939 80.5742 347.787 81.6666L346.602 81.7675C346.804 80.1708 346.93 78.7171 346.981 77.4061L347.208 77.2045L349.3 77.4818H357.115L359.258 77.2045L359.485 77.4061C359.535 78.7843 359.661 80.2044 359.863 81.6666L358.678 81.7675C358.493 80.6582 358.308 79.9103 358.123 79.5238C357.939 79.1372 357.611 78.8851 357.14 78.7675C356.67 78.6498 355.762 78.5574 354.418 78.4902C354.317 79.4986 354.224 81.2801 354.14 83.8347C354.056 86.3893 354.014 88.6918 354.014 90.7422C354.014 91.364 354.123 91.8044 354.342 92.0632C354.56 92.3254 354.93 92.4565 355.451 92.4565C355.955 92.4565 356.417 92.4313 356.838 92.3808L356.913 92.4817L356.686 93.6413L355.854 93.6161L352.981 93.5657C352.056 93.5657 350.905 93.5993 349.527 93.6665Z" fill="#B44E09"/>
<defs>
<clipPath id="clip0_2_142">
<rect width="120" height="120.857" fill="white"/>
</clipPath>
<clipPath id="clip1_2_142">
<rect width="120" height="120.857" fill="white"/>
</clipPath>
</defs>
</svg>
